<?xml version="1.0" encoding="UTF-8"?>
<svg xmlns="http://www.w3.org/2000/svg" version="1.1" width="500" height="500" viewBox="0 0 500 500">
  <rect x="0" y="0" width="500" height="500" fill="#ffffff" />
  <defs>
    <linearGradient gradientUnits="userSpaceOnUse" x1="0" y1="0" x2="29" y2="29" id="g1">
      <stop offset="0%" stop-color="#c850c0" />
      <stop offset="100%" stop-color="#4158d0" />
    </linearGradient>
  </defs>
  <g transform="scale(17.24137931034483)">
    <path
      d="M0 0h1v1H0zM1 0h1v1H1zM2 0h1v1H2zM3 0h1v1H3zM4 0h1v1H4zM5 0h1v1H5zM6 0h1v1H6zM9 0h1v1H9zM11 0h1v1H11zM12 0h1v1H12zM13 0h1v1H13zM16 0h1v1H16zM17 0h1v1H17zM18 0h1v1H18zM19 0h1v1H19zM20 0h1v1H20zM22 0h1v1H22zM23 0h1v1H23zM24 0h1v1H24zM25 0h1v1H25zM26 0h1v1H26zM27 0h1v1H27zM28 0h1v1H28zM0 1h1v1H0zM6 1h1v1H6zM8 1h1v1H8zM10 1h1v1H10zM11 1h1v1H11zM14 1h1v1H14zM15 1h1v1H15zM16 1h1v1H16zM17 1h1v1H17zM18 1h1v1H18zM19 1h1v1H19zM20 1h1v1H20zM22 1h1v1H22zM28 1h1v1H28zM0 2h1v1H0zM2 2h1v1H2zM3 2h1v1H3zM4 2h1v1H4zM6 2h1v1H6zM9 2h1v1H9zM13 2h1v1H13zM14 2h1v1H14zM16 2h1v1H16zM19 2h1v1H19zM20 2h1v1H20zM22 2h1v1H22zM24 2h1v1H24zM25 2h1v1H25zM26 2h1v1H26zM28 2h1v1H28zM0 3h1v1H0zM2 3h1v1H2zM3 3h1v1H3zM4 3h1v1H4zM6 3h1v1H6zM10 3h1v1H10zM11 3h1v1H11zM12 3h1v1H12zM13 3h1v1H13zM14 3h1v1H14zM15 3h1v1H15zM18 3h1v1H18zM19 3h1v1H19zM20 3h1v1H20zM22 3h1v1H22zM24 3h1v1H24zM25 3h1v1H25zM26 3h1v1H26zM28 3h1v1H28zM0 4h1v1H0zM2 4h1v1H2zM3 4h1v1H3zM4 4h1v1H4zM6 4h1v1H6zM8 4h1v1H8zM10 4h1v1H10zM11 4h1v1H11zM14 4h1v1H14zM18 4h1v1H18zM19 4h1v1H19zM22 4h1v1H22zM24 4h1v1H24zM25 4h1v1H25zM26 4h1v1H26zM28 4h1v1H28zM0 5h1v1H0zM6 5h1v1H6zM10 5h1v1H10zM11 5h1v1H11zM13 5h1v1H13zM17 5h1v1H17zM19 5h1v1H19zM20 5h1v1H20zM22 5h1v1H22zM28 5h1v1H28zM0 6h1v1H0zM1 6h1v1H1zM2 6h1v1H2zM3 6h1v1H3zM4 6h1v1H4zM5 6h1v1H5zM6 6h1v1H6zM8 6h1v1H8zM10 6h1v1H10zM12 6h1v1H12zM14 6h1v1H14zM16 6h1v1H16zM18 6h1v1H18zM20 6h1v1H20zM22 6h1v1H22zM23 6h1v1H23zM24 6h1v1H24zM25 6h1v1H25zM26 6h1v1H26zM27 6h1v1H27zM28 6h1v1H28zM10 7h1v1H10zM13 7h1v1H13zM14 7h1v1H14zM16 7h1v1H16zM17 7h1v1H17zM18 7h1v1H18zM19 7h1v1H19zM0 8h1v1H0zM2 8h1v1H2zM4 8h1v1H4zM6 8h1v1H6zM10 8h1v1H10zM11 8h1v1H11zM12 8h1v1H12zM14 8h1v1H14zM15 8h1v1H15zM16 8h1v1H16zM17 8h1v1H17zM18 8h1v1H18zM19 8h1v1H19zM20 8h1v1H20zM24 8h1v1H24zM27 8h1v1H27zM1 9h1v1H1zM2 9h1v1H2zM3 9h1v1H3zM4 9h1v1H4zM5 9h1v1H5zM7 9h1v1H7zM8 9h1v1H8zM14 9h1v1H14zM15 9h1v1H15zM20 9h1v1H20zM22 9h1v1H22zM25 9h1v1H25zM28 9h1v1H28zM0 10h1v1H0zM1 10h1v1H1zM2 10h1v1H2zM6 10h1v1H6zM8 10h1v1H8zM9 10h1v1H9zM13 10h1v1H13zM16 10h1v1H16zM20 10h1v1H20zM22 10h1v1H22zM23 10h1v1H23zM26 10h1v1H26zM27 10h1v1H27zM28 10h1v1H28zM0 11h1v1H0zM2 11h1v1H2zM5 11h1v1H5zM7 11h1v1H7zM8 11h1v1H8zM10 11h1v1H10zM11 11h1v1H11zM16 11h1v1H16zM17 11h1v1H17zM18 11h1v1H18zM20 11h1v1H20zM22 11h1v1H22zM23 11h1v1H23zM24 11h1v1H24zM27 11h1v1H27zM3 12h1v1H3zM4 12h1v1H4zM6 12h1v1H6zM8 12h1v1H8zM11 12h1v1H11zM12 12h1v1H12zM17 12h1v1H17zM19 12h1v1H19zM20 12h1v1H20zM22 12h1v1H22zM25 12h1v1H25zM27 12h1v1H27zM28 12h1v1H28zM0 13h1v1H0zM1 13h1v1H1zM4 13h1v1H4zM5 13h1v1H5zM7 13h1v1H7zM10 13h1v1H10zM13 13h1v1H13zM16 13h1v1H16zM21 13h1v1H21zM22 13h1v1H22zM25 13h1v1H25zM28 13h1v1H28zM0 14h1v1H0zM2 14h1v1H2zM3 14h1v1H3zM4 14h1v1H4zM5 14h1v1H5zM6 14h1v1H6zM7 14h1v1H7zM8 14h1v1H8zM12 14h1v1H12zM14 14h1v1H14zM18 14h1v1H18zM21 14h1v1H21zM25 14h1v1H25zM27 14h1v1H27zM28 14h1v1H28zM0 15h1v1H0zM1 15h1v1H1zM2 15h1v1H2zM4 15h1v1H4zM5 15h1v1H5zM8 15h1v1H8zM11 15h1v1H11zM12 15h1v1H12zM13 15h1v1H13zM14 15h1v1H14zM15 15h1v1H15zM16 15h1v1H16zM17 15h1v1H17zM20 15h1v1H20zM24 15h1v1H24zM25 15h1v1H25zM27 15h1v1H27zM0 16h1v1H0zM2 16h1v1H2zM6 16h1v1H6zM7 16h1v1H7zM9 16h1v1H9zM11 16h1v1H11zM12 16h1v1H12zM14 16h1v1H14zM16 16h1v1H16zM17 16h1v1H17zM19 16h1v1H19zM20 16h1v1H20zM21 16h1v1H21zM22 16h1v1H22zM25 16h1v1H25zM27 16h1v1H27zM28 16h1v1H28zM1 17h1v1H1zM2 17h1v1H2zM4 17h1v1H4zM8 17h1v1H8zM11 17h1v1H11zM12 17h1v1H12zM14 17h1v1H14zM16 17h1v1H16zM17 17h1v1H17zM18 17h1v1H18zM20 17h1v1H20zM21 17h1v1H21zM22 17h1v1H22zM25 17h1v1H25zM26 17h1v1H26zM28 17h1v1H28zM0 18h1v1H0zM2 18h1v1H2zM4 18h1v1H4zM6 18h1v1H6zM7 18h1v1H7zM8 18h1v1H8zM10 18h1v1H10zM13 18h1v1H13zM16 18h1v1H16zM21 18h1v1H21zM23 18h1v1H23zM24 18h1v1H24zM27 18h1v1H27zM28 18h1v1H28zM1 19h1v1H1zM2 19h1v1H2zM3 19h1v1H3zM5 19h1v1H5zM10 19h1v1H10zM11 19h1v1H11zM15 19h1v1H15zM16 19h1v1H16zM17 19h1v1H17zM18 19h1v1H18zM23 19h1v1H23zM24 19h1v1H24zM25 19h1v1H25zM27 19h1v1H27zM0 20h1v1H0zM2 20h1v1H2zM3 20h1v1H3zM4 20h1v1H4zM5 20h1v1H5zM6 20h1v1H6zM7 20h1v1H7zM8 20h1v1H8zM10 20h1v1H10zM12 20h1v1H12zM16 20h1v1H16zM17 20h1v1H17zM20 20h1v1H20zM21 20h1v1H21zM22 20h1v1H22zM23 20h1v1H23zM24 20h1v1H24zM8 21h1v1H8zM13 21h1v1H13zM16 21h1v1H16zM19 21h1v1H19zM20 21h1v1H20zM24 21h1v1H24zM26 21h1v1H26zM27 21h1v1H27zM28 21h1v1H28zM0 22h1v1H0zM1 22h1v1H1zM2 22h1v1H2zM3 22h1v1H3zM4 22h1v1H4zM5 22h1v1H5zM6 22h1v1H6zM12 22h1v1H12zM14 22h1v1H14zM16 22h1v1H16zM19 22h1v1H19zM20 22h1v1H20zM22 22h1v1H22zM24 22h1v1H24zM25 22h1v1H25zM27 22h1v1H27zM28 22h1v1H28zM0 23h1v1H0zM6 23h1v1H6zM10 23h1v1H10zM12 23h1v1H12zM13 23h1v1H13zM14 23h1v1H14zM16 23h1v1H16zM17 23h1v1H17zM18 23h1v1H18zM20 23h1v1H20zM24 23h1v1H24zM25 23h1v1H25zM27 23h1v1H27zM28 23h1v1H28zM0 24h1v1H0zM2 24h1v1H2zM3 24h1v1H3zM4 24h1v1H4zM6 24h1v1H6zM8 24h1v1H8zM10 24h1v1H10zM11 24h1v1H11zM12 24h1v1H12zM14 24h1v1H14zM15 24h1v1H15zM16 24h1v1H16zM17 24h1v1H17zM20 24h1v1H20zM21 24h1v1H21zM22 24h1v1H22zM23 24h1v1H23zM24 24h1v1H24zM28 24h1v1H28zM0 25h1v1H0zM2 25h1v1H2zM3 25h1v1H3zM4 25h1v1H4zM6 25h1v1H6zM9 25h1v1H9zM12 25h1v1H12zM14 25h1v1H14zM17 25h1v1H17zM19 25h1v1H19zM20 25h1v1H20zM23 25h1v1H23zM24 25h1v1H24zM26 25h1v1H26zM27 25h1v1H27zM28 25h1v1H28zM0 26h1v1H0zM2 26h1v1H2zM3 26h1v1H3zM4 26h1v1H4zM6 26h1v1H6zM8 26h1v1H8zM13 26h1v1H13zM16 26h1v1H16zM18 26h1v1H18zM20 26h1v1H20zM23 26h1v1H23zM24 26h1v1H24zM25 26h1v1H25zM28 26h1v1H28zM0 27h1v1H0zM6 27h1v1H6zM9 27h1v1H9zM10 27h1v1H10zM11 27h1v1H11zM14 27h1v1H14zM16 27h1v1H16zM17 27h1v1H17zM18 27h1v1H18zM20 27h1v1H20zM21 27h1v1H21zM23 27h1v1H23zM27 27h1v1H27zM0 28h1v1H0zM1 28h1v1H1zM2 28h1v1H2zM3 28h1v1H3zM4 28h1v1H4zM5 28h1v1H5zM6 28h1v1H6zM8 28h1v1H8zM9 28h1v1H9zM10 28h1v1H10zM13 28h1v1H13zM15 28h1v1H15zM16 28h1v1H16zM17 28h1v1H17zM19 28h1v1H19zM20 28h1v1H20zM21 28h1v1H21zM22 28h1v1H22zM23 28h1v1H23zM27 28h1v1H27zM28 28h1v1H28z"
      fill="url(#g1)" />
  </g>
</svg>